<mxfile host="Electron" agent="Mozilla/5.0 (Windows NT 10.0; Win64; x64) AppleWebKit/537.36 (KHTML, like Gecko) draw.io/26.1.1 Chrome/132.0.6834.210 Electron/34.3.3 Safari/537.36" version="26.1.1">
  <diagram name="Page-1" id="2a216829-ef6e-dabb-86c1-c78162f3ba2b">
    <mxGraphModel dx="4030" dy="2190" grid="1" gridSize="10" guides="1" tooltips="1" connect="1" arrows="1" fold="1" page="1" pageScale="1" pageWidth="850" pageHeight="1100" background="none" math="0" shadow="0">
      <root>
        <mxCell id="0" />
        <mxCell id="1" parent="0" />
        <mxCell id="ilzCX3CVJIktDlvE4C5N-4" value="&lt;font style=&quot;font-size: 14px;&quot;&gt;Авторизация&lt;/font&gt;" style="swimlane;whiteSpace=wrap;html=1;" parent="1" vertex="1">
          <mxGeometry x="1540" y="1550" width="1150" height="640" as="geometry" />
        </mxCell>
        <mxCell id="ilzCX3CVJIktDlvE4C5N-5" value="Сервис получения запросов" style="swimlane;horizontal=0;whiteSpace=wrap;html=1;startSize=23;" parent="ilzCX3CVJIktDlvE4C5N-4" vertex="1">
          <mxGeometry y="30" width="1150" height="210" as="geometry" />
        </mxCell>
        <mxCell id="ilzCX3CVJIktDlvE4C5N-8" value="" style="points=[[0.145,0.145,0],[0.5,0,0],[0.855,0.145,0],[1,0.5,0],[0.855,0.855,0],[0.5,1,0],[0.145,0.855,0],[0,0.5,0]];shape=mxgraph.bpmn.event;html=1;verticalLabelPosition=bottom;labelBackgroundColor=#ffffff;verticalAlign=top;align=center;perimeter=ellipsePerimeter;outlineConnect=0;aspect=fixed;outline=standard;symbol=message;" parent="ilzCX3CVJIktDlvE4C5N-5" vertex="1">
          <mxGeometry x="75" y="80" width="45" height="45" as="geometry" />
        </mxCell>
        <mxCell id="ilzCX3CVJIktDlvE4C5N-9" value="Запрос на авторизацию" style="text;html=1;align=center;verticalAlign=middle;resizable=0;points=[];autosize=1;strokeColor=none;fillColor=none;" parent="ilzCX3CVJIktDlvE4C5N-5" vertex="1">
          <mxGeometry x="20" y="50" width="160" height="30" as="geometry" />
        </mxCell>
        <mxCell id="ilzCX3CVJIktDlvE4C5N-15" value="Информирование&lt;br&gt;пользователя&lt;br&gt;об ошибке в запросе" style="points=[[0.25,0,0],[0.5,0,0],[0.75,0,0],[1,0.25,0],[1,0.5,0],[1,0.75,0],[0.75,1,0],[0.5,1,0],[0.25,1,0],[0,0.75,0],[0,0.5,0],[0,0.25,0]];shape=mxgraph.bpmn.task2;whiteSpace=wrap;rectStyle=rounded;size=10;html=1;container=1;expand=0;collapsible=0;taskMarker=abstract;" parent="ilzCX3CVJIktDlvE4C5N-5" vertex="1">
          <mxGeometry x="310" y="10" width="120" height="50" as="geometry" />
        </mxCell>
        <mxCell id="ilzCX3CVJIktDlvE4C5N-17" value="" style="points=[[0.145,0.145,0],[0.5,0,0],[0.855,0.145,0],[1,0.5,0],[0.855,0.855,0],[0.5,1,0],[0.145,0.855,0],[0,0.5,0]];shape=mxgraph.bpmn.event;html=1;verticalLabelPosition=bottom;labelBackgroundColor=#ffffff;verticalAlign=top;align=center;perimeter=ellipsePerimeter;outlineConnect=0;aspect=fixed;outline=end;symbol=error;" parent="ilzCX3CVJIktDlvE4C5N-5" vertex="1">
          <mxGeometry x="460" y="15" width="40" height="40" as="geometry" />
        </mxCell>
        <mxCell id="ilzCX3CVJIktDlvE4C5N-18" style="edgeStyle=orthogonalEdgeStyle;rounded=0;orthogonalLoop=1;jettySize=auto;html=1;entryX=0;entryY=0.5;entryDx=0;entryDy=0;entryPerimeter=0;" parent="ilzCX3CVJIktDlvE4C5N-5" source="ilzCX3CVJIktDlvE4C5N-15" target="ilzCX3CVJIktDlvE4C5N-17" edge="1">
          <mxGeometry relative="1" as="geometry" />
        </mxCell>
        <mxCell id="ilzCX3CVJIktDlvE4C5N-30" value="Информирование&lt;br&gt;пользователя&lt;br&gt;об ошибке авторизации" style="points=[[0.25,0,0],[0.5,0,0],[0.75,0,0],[1,0.25,0],[1,0.5,0],[1,0.75,0],[0.75,1,0],[0.5,1,0],[0.25,1,0],[0,0.75,0],[0,0.5,0],[0,0.25,0]];shape=mxgraph.bpmn.task2;whiteSpace=wrap;rectStyle=rounded;size=10;html=1;container=1;expand=0;collapsible=0;taskMarker=abstract;" parent="ilzCX3CVJIktDlvE4C5N-5" vertex="1">
          <mxGeometry x="560" y="10" width="140" height="50" as="geometry" />
        </mxCell>
        <mxCell id="ilzCX3CVJIktDlvE4C5N-31" value="" style="points=[[0.145,0.145,0],[0.5,0,0],[0.855,0.145,0],[1,0.5,0],[0.855,0.855,0],[0.5,1,0],[0.145,0.855,0],[0,0.5,0]];shape=mxgraph.bpmn.event;html=1;verticalLabelPosition=bottom;labelBackgroundColor=#ffffff;verticalAlign=top;align=center;perimeter=ellipsePerimeter;outlineConnect=0;aspect=fixed;outline=end;symbol=error;" parent="ilzCX3CVJIktDlvE4C5N-5" vertex="1">
          <mxGeometry x="730" y="15" width="40" height="40" as="geometry" />
        </mxCell>
        <mxCell id="ilzCX3CVJIktDlvE4C5N-32" style="edgeStyle=orthogonalEdgeStyle;rounded=0;orthogonalLoop=1;jettySize=auto;html=1;entryX=0;entryY=0.5;entryDx=0;entryDy=0;entryPerimeter=0;" parent="ilzCX3CVJIktDlvE4C5N-5" source="ilzCX3CVJIktDlvE4C5N-30" target="ilzCX3CVJIktDlvE4C5N-31" edge="1">
          <mxGeometry relative="1" as="geometry" />
        </mxCell>
        <mxCell id="ilzCX3CVJIktDlvE4C5N-35" value="Формирование ответа" style="points=[[0.25,0,0],[0.5,0,0],[0.75,0,0],[1,0.25,0],[1,0.5,0],[1,0.75,0],[0.75,1,0],[0.5,1,0],[0.25,1,0],[0,0.75,0],[0,0.5,0],[0,0.25,0]];shape=mxgraph.bpmn.task2;whiteSpace=wrap;rectStyle=rounded;size=10;html=1;container=1;expand=0;collapsible=0;taskMarker=abstract;" parent="ilzCX3CVJIktDlvE4C5N-5" vertex="1">
          <mxGeometry x="920" y="80" width="120" height="50" as="geometry" />
        </mxCell>
        <mxCell id="ilzCX3CVJIktDlvE4C5N-37" style="edgeStyle=orthogonalEdgeStyle;rounded=0;orthogonalLoop=1;jettySize=auto;html=1;" parent="ilzCX3CVJIktDlvE4C5N-5" source="ilzCX3CVJIktDlvE4C5N-35" target="ilzCX3CVJIktDlvE4C5N-43" edge="1">
          <mxGeometry relative="1" as="geometry">
            <mxPoint x="1070" y="105" as="targetPoint" />
          </mxGeometry>
        </mxCell>
        <mxCell id="ilzCX3CVJIktDlvE4C5N-43" value="" style="points=[[0.145,0.145,0],[0.5,0,0],[0.855,0.145,0],[1,0.5,0],[0.855,0.855,0],[0.5,1,0],[0.145,0.855,0],[0,0.5,0]];shape=mxgraph.bpmn.event;html=1;verticalLabelPosition=bottom;labelBackgroundColor=#ffffff;verticalAlign=top;align=center;perimeter=ellipsePerimeter;outlineConnect=0;aspect=fixed;outline=end;symbol=message;" parent="ilzCX3CVJIktDlvE4C5N-5" vertex="1">
          <mxGeometry x="1080" y="80" width="50" height="50" as="geometry" />
        </mxCell>
        <mxCell id="ilzCX3CVJIktDlvE4C5N-6" value="Сервис обработки запросов" style="swimlane;horizontal=0;whiteSpace=wrap;html=1;" parent="ilzCX3CVJIktDlvE4C5N-4" vertex="1">
          <mxGeometry y="240" width="1150" height="200" as="geometry" />
        </mxCell>
        <mxCell id="ilzCX3CVJIktDlvE4C5N-11" value="Обработка запроса" style="points=[[0.25,0,0],[0.5,0,0],[0.75,0,0],[1,0.25,0],[1,0.5,0],[1,0.75,0],[0.75,1,0],[0.5,1,0],[0.25,1,0],[0,0.75,0],[0,0.5,0],[0,0.25,0]];shape=mxgraph.bpmn.task2;whiteSpace=wrap;rectStyle=rounded;size=10;html=1;container=1;expand=0;collapsible=0;taskMarker=abstract;" parent="ilzCX3CVJIktDlvE4C5N-6" vertex="1">
          <mxGeometry x="160" y="55" width="80" height="50" as="geometry" />
        </mxCell>
        <mxCell id="ilzCX3CVJIktDlvE4C5N-10" value="" style="points=[[0.25,0.25,0],[0.5,0,0],[0.75,0.25,0],[1,0.5,0],[0.75,0.75,0],[0.5,1,0],[0.25,0.75,0],[0,0.5,0]];shape=mxgraph.bpmn.gateway2;html=1;verticalLabelPosition=bottom;labelBackgroundColor=#ffffff;verticalAlign=top;align=center;perimeter=rhombusPerimeter;outlineConnect=0;outline=none;symbol=none;gwType=exclusive;" parent="ilzCX3CVJIktDlvE4C5N-6" vertex="1">
          <mxGeometry x="270" y="55" width="50" height="50" as="geometry" />
        </mxCell>
        <mxCell id="ilzCX3CVJIktDlvE4C5N-13" style="edgeStyle=orthogonalEdgeStyle;rounded=0;orthogonalLoop=1;jettySize=auto;html=1;entryX=0;entryY=0.5;entryDx=0;entryDy=0;entryPerimeter=0;" parent="ilzCX3CVJIktDlvE4C5N-6" source="ilzCX3CVJIktDlvE4C5N-11" target="ilzCX3CVJIktDlvE4C5N-10" edge="1">
          <mxGeometry relative="1" as="geometry" />
        </mxCell>
        <mxCell id="ilzCX3CVJIktDlvE4C5N-14" value="Удалось&amp;nbsp;&lt;div&gt;обработать?&lt;/div&gt;" style="text;html=1;align=center;verticalAlign=middle;resizable=0;points=[];autosize=1;strokeColor=none;fillColor=none;" parent="ilzCX3CVJIktDlvE4C5N-6" vertex="1">
          <mxGeometry x="220" y="100" width="90" height="40" as="geometry" />
        </mxCell>
        <mxCell id="ilzCX3CVJIktDlvE4C5N-19" value="Нет" style="text;html=1;align=center;verticalAlign=middle;resizable=0;points=[];autosize=1;strokeColor=none;fillColor=none;" parent="ilzCX3CVJIktDlvE4C5N-6" vertex="1">
          <mxGeometry x="250" y="25" width="40" height="30" as="geometry" />
        </mxCell>
        <mxCell id="ilzCX3CVJIktDlvE4C5N-7" value="Сервис хранения данных" style="swimlane;horizontal=0;whiteSpace=wrap;html=1;" parent="ilzCX3CVJIktDlvE4C5N-4" vertex="1">
          <mxGeometry y="440" width="1150" height="200" as="geometry" />
        </mxCell>
        <mxCell id="ilzCX3CVJIktDlvE4C5N-21" value="Поиск пользователя с указанным логином и паролем" style="points=[[0.25,0,0],[0.5,0,0],[0.75,0,0],[1,0.25,0],[1,0.5,0],[1,0.75,0],[0.75,1,0],[0.5,1,0],[0.25,1,0],[0,0.75,0],[0,0.5,0],[0,0.25,0]];shape=mxgraph.bpmn.task2;whiteSpace=wrap;rectStyle=rounded;size=10;html=1;container=1;expand=0;collapsible=0;taskMarker=abstract;" parent="ilzCX3CVJIktDlvE4C5N-7" vertex="1">
          <mxGeometry x="350" y="50" width="120" height="60" as="geometry" />
        </mxCell>
        <mxCell id="ilzCX3CVJIktDlvE4C5N-40" style="edgeStyle=orthogonalEdgeStyle;rounded=0;orthogonalLoop=1;jettySize=auto;html=1;exitX=1;exitY=0.5;exitDx=0;exitDy=0;exitPerimeter=0;" parent="ilzCX3CVJIktDlvE4C5N-7" source="ilzCX3CVJIktDlvE4C5N-23" target="ilzCX3CVJIktDlvE4C5N-39" edge="1">
          <mxGeometry relative="1" as="geometry" />
        </mxCell>
        <mxCell id="ilzCX3CVJIktDlvE4C5N-23" value="" style="points=[[0.25,0.25,0],[0.5,0,0],[0.75,0.25,0],[1,0.5,0],[0.75,0.75,0],[0.5,1,0],[0.25,0.75,0],[0,0.5,0]];shape=mxgraph.bpmn.gateway2;html=1;verticalLabelPosition=bottom;labelBackgroundColor=#ffffff;verticalAlign=top;align=center;perimeter=rhombusPerimeter;outlineConnect=0;outline=none;symbol=none;gwType=exclusive;" parent="ilzCX3CVJIktDlvE4C5N-7" vertex="1">
          <mxGeometry x="545" y="55" width="50" height="50" as="geometry" />
        </mxCell>
        <mxCell id="ilzCX3CVJIktDlvE4C5N-24" style="edgeStyle=orthogonalEdgeStyle;rounded=0;orthogonalLoop=1;jettySize=auto;html=1;entryX=0;entryY=0.5;entryDx=0;entryDy=0;entryPerimeter=0;" parent="ilzCX3CVJIktDlvE4C5N-7" source="ilzCX3CVJIktDlvE4C5N-21" target="ilzCX3CVJIktDlvE4C5N-23" edge="1">
          <mxGeometry relative="1" as="geometry" />
        </mxCell>
        <mxCell id="ilzCX3CVJIktDlvE4C5N-34" value="Нет" style="text;html=1;align=center;verticalAlign=middle;resizable=0;points=[];autosize=1;strokeColor=none;fillColor=none;" parent="ilzCX3CVJIktDlvE4C5N-7" vertex="1">
          <mxGeometry x="570" y="25" width="40" height="30" as="geometry" />
        </mxCell>
        <mxCell id="ilzCX3CVJIktDlvE4C5N-39" value="Получение всей информации о пользователе - расписание, привычки, настройки и тд" style="points=[[0.25,0,0],[0.5,0,0],[0.75,0,0],[1,0.25,0],[1,0.5,0],[1,0.75,0],[0.75,1,0],[0.5,1,0],[0.25,1,0],[0,0.75,0],[0,0.5,0],[0,0.25,0]];shape=mxgraph.bpmn.task2;whiteSpace=wrap;rectStyle=rounded;size=10;html=1;container=1;expand=0;collapsible=0;taskMarker=abstract;" parent="ilzCX3CVJIktDlvE4C5N-7" vertex="1">
          <mxGeometry x="650" y="50" width="170" height="60" as="geometry" />
        </mxCell>
        <mxCell id="ilzCX3CVJIktDlvE4C5N-25" value="Пользователь&lt;div&gt;найден?&lt;/div&gt;" style="text;html=1;align=center;verticalAlign=middle;resizable=0;points=[];autosize=1;strokeColor=none;fillColor=none;" parent="ilzCX3CVJIktDlvE4C5N-7" vertex="1">
          <mxGeometry x="460" y="80" width="100" height="40" as="geometry" />
        </mxCell>
        <mxCell id="ilzCX3CVJIktDlvE4C5N-12" style="edgeStyle=orthogonalEdgeStyle;rounded=0;orthogonalLoop=1;jettySize=auto;html=1;entryX=0;entryY=0.5;entryDx=0;entryDy=0;entryPerimeter=0;" parent="ilzCX3CVJIktDlvE4C5N-4" source="ilzCX3CVJIktDlvE4C5N-8" target="ilzCX3CVJIktDlvE4C5N-11" edge="1">
          <mxGeometry relative="1" as="geometry" />
        </mxCell>
        <mxCell id="ilzCX3CVJIktDlvE4C5N-16" style="edgeStyle=orthogonalEdgeStyle;rounded=0;orthogonalLoop=1;jettySize=auto;html=1;" parent="ilzCX3CVJIktDlvE4C5N-4" source="ilzCX3CVJIktDlvE4C5N-10" target="ilzCX3CVJIktDlvE4C5N-15" edge="1">
          <mxGeometry relative="1" as="geometry">
            <Array as="points">
              <mxPoint x="295" y="65" />
            </Array>
          </mxGeometry>
        </mxCell>
        <mxCell id="ilzCX3CVJIktDlvE4C5N-22" style="edgeStyle=orthogonalEdgeStyle;rounded=0;orthogonalLoop=1;jettySize=auto;html=1;" parent="ilzCX3CVJIktDlvE4C5N-4" source="ilzCX3CVJIktDlvE4C5N-10" target="ilzCX3CVJIktDlvE4C5N-21" edge="1">
          <mxGeometry relative="1" as="geometry" />
        </mxCell>
        <mxCell id="ilzCX3CVJIktDlvE4C5N-33" style="edgeStyle=orthogonalEdgeStyle;rounded=0;orthogonalLoop=1;jettySize=auto;html=1;" parent="ilzCX3CVJIktDlvE4C5N-4" source="ilzCX3CVJIktDlvE4C5N-23" target="ilzCX3CVJIktDlvE4C5N-30" edge="1">
          <mxGeometry relative="1" as="geometry" />
        </mxCell>
        <mxCell id="ilzCX3CVJIktDlvE4C5N-41" style="edgeStyle=orthogonalEdgeStyle;rounded=0;orthogonalLoop=1;jettySize=auto;html=1;" parent="ilzCX3CVJIktDlvE4C5N-4" source="ilzCX3CVJIktDlvE4C5N-39" target="ilzCX3CVJIktDlvE4C5N-35" edge="1">
          <mxGeometry relative="1" as="geometry">
            <mxPoint x="880" y="340" as="targetPoint" />
            <Array as="points">
              <mxPoint x="850" y="520" />
              <mxPoint x="850" y="135" />
            </Array>
          </mxGeometry>
        </mxCell>
        <mxCell id="ilzCX3CVJIktDlvE4C5N-48" value="&lt;font style=&quot;font-size: 14px;&quot;&gt;Добавление привычки&lt;/font&gt;" style="swimlane;whiteSpace=wrap;html=1;" parent="1" vertex="1">
          <mxGeometry y="1540" width="1460" height="840" as="geometry" />
        </mxCell>
        <mxCell id="ilzCX3CVJIktDlvE4C5N-49" value="Сервис получения запросов" style="swimlane;horizontal=0;whiteSpace=wrap;html=1;startSize=23;" parent="ilzCX3CVJIktDlvE4C5N-48" vertex="1">
          <mxGeometry y="30" width="1460" height="210" as="geometry" />
        </mxCell>
        <mxCell id="ilzCX3CVJIktDlvE4C5N-50" value="" style="points=[[0.145,0.145,0],[0.5,0,0],[0.855,0.145,0],[1,0.5,0],[0.855,0.855,0],[0.5,1,0],[0.145,0.855,0],[0,0.5,0]];shape=mxgraph.bpmn.event;html=1;verticalLabelPosition=bottom;labelBackgroundColor=#ffffff;verticalAlign=top;align=center;perimeter=ellipsePerimeter;outlineConnect=0;aspect=fixed;outline=standard;symbol=message;" parent="ilzCX3CVJIktDlvE4C5N-49" vertex="1">
          <mxGeometry x="75" y="80" width="45" height="45" as="geometry" />
        </mxCell>
        <mxCell id="ilzCX3CVJIktDlvE4C5N-51" value="Запрос на добавление&lt;div&gt;&amp;nbsp;привычки&lt;/div&gt;" style="text;html=1;align=center;verticalAlign=middle;resizable=0;points=[];autosize=1;strokeColor=none;fillColor=none;" parent="ilzCX3CVJIktDlvE4C5N-49" vertex="1">
          <mxGeometry x="25" y="45" width="150" height="40" as="geometry" />
        </mxCell>
        <mxCell id="ilzCX3CVJIktDlvE4C5N-52" value="Информирование&lt;br&gt;пользователя&lt;br&gt;об ошибке в запросе" style="points=[[0.25,0,0],[0.5,0,0],[0.75,0,0],[1,0.25,0],[1,0.5,0],[1,0.75,0],[0.75,1,0],[0.5,1,0],[0.25,1,0],[0,0.75,0],[0,0.5,0],[0,0.25,0]];shape=mxgraph.bpmn.task2;whiteSpace=wrap;rectStyle=rounded;size=10;html=1;container=1;expand=0;collapsible=0;taskMarker=abstract;" parent="ilzCX3CVJIktDlvE4C5N-49" vertex="1">
          <mxGeometry x="310" y="10" width="120" height="50" as="geometry" />
        </mxCell>
        <mxCell id="ilzCX3CVJIktDlvE4C5N-53" value="" style="points=[[0.145,0.145,0],[0.5,0,0],[0.855,0.145,0],[1,0.5,0],[0.855,0.855,0],[0.5,1,0],[0.145,0.855,0],[0,0.5,0]];shape=mxgraph.bpmn.event;html=1;verticalLabelPosition=bottom;labelBackgroundColor=#ffffff;verticalAlign=top;align=center;perimeter=ellipsePerimeter;outlineConnect=0;aspect=fixed;outline=end;symbol=error;" parent="ilzCX3CVJIktDlvE4C5N-49" vertex="1">
          <mxGeometry x="460" y="15" width="40" height="40" as="geometry" />
        </mxCell>
        <mxCell id="ilzCX3CVJIktDlvE4C5N-54" style="edgeStyle=orthogonalEdgeStyle;rounded=0;orthogonalLoop=1;jettySize=auto;html=1;entryX=0;entryY=0.5;entryDx=0;entryDy=0;entryPerimeter=0;" parent="ilzCX3CVJIktDlvE4C5N-49" source="ilzCX3CVJIktDlvE4C5N-52" target="ilzCX3CVJIktDlvE4C5N-53" edge="1">
          <mxGeometry relative="1" as="geometry" />
        </mxCell>
        <mxCell id="ilzCX3CVJIktDlvE4C5N-55" value="Информирование&lt;br&gt;пользователя&lt;br&gt;об ошибке авторизации" style="points=[[0.25,0,0],[0.5,0,0],[0.75,0,0],[1,0.25,0],[1,0.5,0],[1,0.75,0],[0.75,1,0],[0.5,1,0],[0.25,1,0],[0,0.75,0],[0,0.5,0],[0,0.25,0]];shape=mxgraph.bpmn.task2;whiteSpace=wrap;rectStyle=rounded;size=10;html=1;container=1;expand=0;collapsible=0;taskMarker=abstract;" parent="ilzCX3CVJIktDlvE4C5N-49" vertex="1">
          <mxGeometry x="560" y="10" width="140" height="50" as="geometry" />
        </mxCell>
        <mxCell id="ilzCX3CVJIktDlvE4C5N-56" value="" style="points=[[0.145,0.145,0],[0.5,0,0],[0.855,0.145,0],[1,0.5,0],[0.855,0.855,0],[0.5,1,0],[0.145,0.855,0],[0,0.5,0]];shape=mxgraph.bpmn.event;html=1;verticalLabelPosition=bottom;labelBackgroundColor=#ffffff;verticalAlign=top;align=center;perimeter=ellipsePerimeter;outlineConnect=0;aspect=fixed;outline=end;symbol=error;" parent="ilzCX3CVJIktDlvE4C5N-49" vertex="1">
          <mxGeometry x="730" y="15" width="40" height="40" as="geometry" />
        </mxCell>
        <mxCell id="ilzCX3CVJIktDlvE4C5N-57" style="edgeStyle=orthogonalEdgeStyle;rounded=0;orthogonalLoop=1;jettySize=auto;html=1;entryX=0;entryY=0.5;entryDx=0;entryDy=0;entryPerimeter=0;" parent="ilzCX3CVJIktDlvE4C5N-49" source="ilzCX3CVJIktDlvE4C5N-55" target="ilzCX3CVJIktDlvE4C5N-56" edge="1">
          <mxGeometry relative="1" as="geometry" />
        </mxCell>
        <mxCell id="ilzCX3CVJIktDlvE4C5N-58" value="Формирование ответа" style="points=[[0.25,0,0],[0.5,0,0],[0.75,0,0],[1,0.25,0],[1,0.5,0],[1,0.75,0],[0.75,1,0],[0.5,1,0],[0.25,1,0],[0,0.75,0],[0,0.5,0],[0,0.25,0]];shape=mxgraph.bpmn.task2;whiteSpace=wrap;rectStyle=rounded;size=10;html=1;container=1;expand=0;collapsible=0;taskMarker=abstract;" parent="ilzCX3CVJIktDlvE4C5N-49" vertex="1">
          <mxGeometry x="1240" y="77.5" width="120" height="50" as="geometry" />
        </mxCell>
        <mxCell id="ilzCX3CVJIktDlvE4C5N-59" style="edgeStyle=orthogonalEdgeStyle;rounded=0;orthogonalLoop=1;jettySize=auto;html=1;" parent="ilzCX3CVJIktDlvE4C5N-49" source="ilzCX3CVJIktDlvE4C5N-58" target="ilzCX3CVJIktDlvE4C5N-60" edge="1">
          <mxGeometry relative="1" as="geometry">
            <mxPoint x="1390" y="102.5" as="targetPoint" />
          </mxGeometry>
        </mxCell>
        <mxCell id="ilzCX3CVJIktDlvE4C5N-60" value="" style="points=[[0.145,0.145,0],[0.5,0,0],[0.855,0.145,0],[1,0.5,0],[0.855,0.855,0],[0.5,1,0],[0.145,0.855,0],[0,0.5,0]];shape=mxgraph.bpmn.event;html=1;verticalLabelPosition=bottom;labelBackgroundColor=#ffffff;verticalAlign=top;align=center;perimeter=ellipsePerimeter;outlineConnect=0;aspect=fixed;outline=end;symbol=message;" parent="ilzCX3CVJIktDlvE4C5N-49" vertex="1">
          <mxGeometry x="1400" y="77.5" width="50" height="50" as="geometry" />
        </mxCell>
        <mxCell id="ilzCX3CVJIktDlvE4C5N-61" value="Сервис обработки запросов" style="swimlane;horizontal=0;whiteSpace=wrap;html=1;" parent="ilzCX3CVJIktDlvE4C5N-48" vertex="1">
          <mxGeometry y="240" width="1460" height="200" as="geometry" />
        </mxCell>
        <mxCell id="ilzCX3CVJIktDlvE4C5N-62" value="Обработка запроса" style="points=[[0.25,0,0],[0.5,0,0],[0.75,0,0],[1,0.25,0],[1,0.5,0],[1,0.75,0],[0.75,1,0],[0.5,1,0],[0.25,1,0],[0,0.75,0],[0,0.5,0],[0,0.25,0]];shape=mxgraph.bpmn.task2;whiteSpace=wrap;rectStyle=rounded;size=10;html=1;container=1;expand=0;collapsible=0;taskMarker=abstract;" parent="ilzCX3CVJIktDlvE4C5N-61" vertex="1">
          <mxGeometry x="160" y="55" width="80" height="50" as="geometry" />
        </mxCell>
        <mxCell id="ilzCX3CVJIktDlvE4C5N-63" value="" style="points=[[0.25,0.25,0],[0.5,0,0],[0.75,0.25,0],[1,0.5,0],[0.75,0.75,0],[0.5,1,0],[0.25,0.75,0],[0,0.5,0]];shape=mxgraph.bpmn.gateway2;html=1;verticalLabelPosition=bottom;labelBackgroundColor=#ffffff;verticalAlign=top;align=center;perimeter=rhombusPerimeter;outlineConnect=0;outline=none;symbol=none;gwType=exclusive;" parent="ilzCX3CVJIktDlvE4C5N-61" vertex="1">
          <mxGeometry x="270" y="55" width="50" height="50" as="geometry" />
        </mxCell>
        <mxCell id="ilzCX3CVJIktDlvE4C5N-64" style="edgeStyle=orthogonalEdgeStyle;rounded=0;orthogonalLoop=1;jettySize=auto;html=1;entryX=0;entryY=0.5;entryDx=0;entryDy=0;entryPerimeter=0;" parent="ilzCX3CVJIktDlvE4C5N-61" source="ilzCX3CVJIktDlvE4C5N-62" target="ilzCX3CVJIktDlvE4C5N-63" edge="1">
          <mxGeometry relative="1" as="geometry" />
        </mxCell>
        <mxCell id="ilzCX3CVJIktDlvE4C5N-65" value="Удалось&amp;nbsp;&lt;div&gt;обработать?&lt;/div&gt;" style="text;html=1;align=center;verticalAlign=middle;resizable=0;points=[];autosize=1;strokeColor=none;fillColor=none;" parent="ilzCX3CVJIktDlvE4C5N-61" vertex="1">
          <mxGeometry x="220" y="100" width="90" height="40" as="geometry" />
        </mxCell>
        <mxCell id="ilzCX3CVJIktDlvE4C5N-66" value="Нет" style="text;html=1;align=center;verticalAlign=middle;resizable=0;points=[];autosize=1;strokeColor=none;fillColor=none;" parent="ilzCX3CVJIktDlvE4C5N-61" vertex="1">
          <mxGeometry x="250" y="25" width="40" height="30" as="geometry" />
        </mxCell>
        <mxCell id="ilzCX3CVJIktDlvE4C5N-75" style="edgeStyle=orthogonalEdgeStyle;rounded=0;orthogonalLoop=1;jettySize=auto;html=1;entryX=0;entryY=0.5;entryDx=0;entryDy=0;entryPerimeter=0;" parent="ilzCX3CVJIktDlvE4C5N-48" source="ilzCX3CVJIktDlvE4C5N-50" target="ilzCX3CVJIktDlvE4C5N-62" edge="1">
          <mxGeometry relative="1" as="geometry" />
        </mxCell>
        <mxCell id="ilzCX3CVJIktDlvE4C5N-76" style="edgeStyle=orthogonalEdgeStyle;rounded=0;orthogonalLoop=1;jettySize=auto;html=1;" parent="ilzCX3CVJIktDlvE4C5N-48" source="ilzCX3CVJIktDlvE4C5N-63" target="ilzCX3CVJIktDlvE4C5N-52" edge="1">
          <mxGeometry relative="1" as="geometry">
            <Array as="points">
              <mxPoint x="295" y="65" />
            </Array>
          </mxGeometry>
        </mxCell>
        <mxCell id="ilzCX3CVJIktDlvE4C5N-68" value="Сервис хранения данных" style="swimlane;horizontal=0;whiteSpace=wrap;html=1;" parent="ilzCX3CVJIktDlvE4C5N-48" vertex="1">
          <mxGeometry y="640" width="1460" height="200" as="geometry" />
        </mxCell>
        <mxCell id="ilzCX3CVJIktDlvE4C5N-69" value="Поиск пользователя с указанным логином и паролем" style="points=[[0.25,0,0],[0.5,0,0],[0.75,0,0],[1,0.25,0],[1,0.5,0],[1,0.75,0],[0.75,1,0],[0.5,1,0],[0.25,1,0],[0,0.75,0],[0,0.5,0],[0,0.25,0]];shape=mxgraph.bpmn.task2;whiteSpace=wrap;rectStyle=rounded;size=10;html=1;container=1;expand=0;collapsible=0;taskMarker=abstract;" parent="ilzCX3CVJIktDlvE4C5N-68" vertex="1">
          <mxGeometry x="350" y="50" width="120" height="60" as="geometry" />
        </mxCell>
        <mxCell id="ilzCX3CVJIktDlvE4C5N-70" style="edgeStyle=orthogonalEdgeStyle;rounded=0;orthogonalLoop=1;jettySize=auto;html=1;exitX=1;exitY=0.5;exitDx=0;exitDy=0;exitPerimeter=0;" parent="ilzCX3CVJIktDlvE4C5N-68" source="ilzCX3CVJIktDlvE4C5N-71" target="ilzCX3CVJIktDlvE4C5N-74" edge="1">
          <mxGeometry relative="1" as="geometry" />
        </mxCell>
        <mxCell id="ilzCX3CVJIktDlvE4C5N-71" value="" style="points=[[0.25,0.25,0],[0.5,0,0],[0.75,0.25,0],[1,0.5,0],[0.75,0.75,0],[0.5,1,0],[0.25,0.75,0],[0,0.5,0]];shape=mxgraph.bpmn.gateway2;html=1;verticalLabelPosition=bottom;labelBackgroundColor=#ffffff;verticalAlign=top;align=center;perimeter=rhombusPerimeter;outlineConnect=0;outline=none;symbol=none;gwType=exclusive;" parent="ilzCX3CVJIktDlvE4C5N-68" vertex="1">
          <mxGeometry x="545" y="55" width="50" height="50" as="geometry" />
        </mxCell>
        <mxCell id="ilzCX3CVJIktDlvE4C5N-72" style="edgeStyle=orthogonalEdgeStyle;rounded=0;orthogonalLoop=1;jettySize=auto;html=1;entryX=0;entryY=0.5;entryDx=0;entryDy=0;entryPerimeter=0;" parent="ilzCX3CVJIktDlvE4C5N-68" source="ilzCX3CVJIktDlvE4C5N-69" target="ilzCX3CVJIktDlvE4C5N-71" edge="1">
          <mxGeometry relative="1" as="geometry" />
        </mxCell>
        <mxCell id="ilzCX3CVJIktDlvE4C5N-73" value="Нет" style="text;html=1;align=center;verticalAlign=middle;resizable=0;points=[];autosize=1;strokeColor=none;fillColor=none;" parent="ilzCX3CVJIktDlvE4C5N-68" vertex="1">
          <mxGeometry x="570" y="25" width="40" height="30" as="geometry" />
        </mxCell>
        <mxCell id="ilzCX3CVJIktDlvE4C5N-74" value="Получение привычек и событий пользователя для нового распределения" style="points=[[0.25,0,0],[0.5,0,0],[0.75,0,0],[1,0.25,0],[1,0.5,0],[1,0.75,0],[0.75,1,0],[0.5,1,0],[0.25,1,0],[0,0.75,0],[0,0.5,0],[0,0.25,0]];shape=mxgraph.bpmn.task2;whiteSpace=wrap;rectStyle=rounded;size=10;html=1;container=1;expand=0;collapsible=0;taskMarker=abstract;" parent="ilzCX3CVJIktDlvE4C5N-68" vertex="1">
          <mxGeometry x="650" y="50" width="170" height="60" as="geometry" />
        </mxCell>
        <mxCell id="ilzCX3CVJIktDlvE4C5N-81" value="Пользователь&lt;div&gt;найден?&lt;/div&gt;" style="text;html=1;align=center;verticalAlign=middle;resizable=0;points=[];autosize=1;strokeColor=none;fillColor=none;" parent="ilzCX3CVJIktDlvE4C5N-68" vertex="1">
          <mxGeometry x="470" y="100" width="100" height="40" as="geometry" />
        </mxCell>
        <mxCell id="1AS3f-FlW91BigOhZWul-4" style="edgeStyle=orthogonalEdgeStyle;rounded=0;orthogonalLoop=1;jettySize=auto;html=1;" edge="1" parent="ilzCX3CVJIktDlvE4C5N-68" source="1AS3f-FlW91BigOhZWul-1" target="1AS3f-FlW91BigOhZWul-3">
          <mxGeometry relative="1" as="geometry" />
        </mxCell>
        <mxCell id="1AS3f-FlW91BigOhZWul-1" value="Обновить привычки для пользователя" style="points=[[0.25,0,0],[0.5,0,0],[0.75,0,0],[1,0.25,0],[1,0.5,0],[1,0.75,0],[0.75,1,0],[0.5,1,0],[0.25,1,0],[0,0.75,0],[0,0.5,0],[0,0.25,0]];shape=mxgraph.bpmn.task2;whiteSpace=wrap;rectStyle=rounded;size=10;html=1;container=1;expand=0;collapsible=0;taskMarker=abstract;" vertex="1" parent="ilzCX3CVJIktDlvE4C5N-68">
          <mxGeometry x="920" y="50" width="170" height="60" as="geometry" />
        </mxCell>
        <mxCell id="1AS3f-FlW91BigOhZWul-3" value="Получение всей информации о пользователе - расписание, привычки, настройки и тд" style="points=[[0.25,0,0],[0.5,0,0],[0.75,0,0],[1,0.25,0],[1,0.5,0],[1,0.75,0],[0.75,1,0],[0.5,1,0],[0.25,1,0],[0,0.75,0],[0,0.5,0],[0,0.25,0]];shape=mxgraph.bpmn.task2;whiteSpace=wrap;rectStyle=rounded;size=10;html=1;container=1;expand=0;collapsible=0;taskMarker=abstract;" vertex="1" parent="ilzCX3CVJIktDlvE4C5N-68">
          <mxGeometry x="1140" y="50" width="170" height="60" as="geometry" />
        </mxCell>
        <mxCell id="ilzCX3CVJIktDlvE4C5N-77" style="edgeStyle=orthogonalEdgeStyle;rounded=0;orthogonalLoop=1;jettySize=auto;html=1;" parent="ilzCX3CVJIktDlvE4C5N-48" source="ilzCX3CVJIktDlvE4C5N-63" target="ilzCX3CVJIktDlvE4C5N-69" edge="1">
          <mxGeometry relative="1" as="geometry" />
        </mxCell>
        <mxCell id="ilzCX3CVJIktDlvE4C5N-78" style="edgeStyle=orthogonalEdgeStyle;rounded=0;orthogonalLoop=1;jettySize=auto;html=1;" parent="ilzCX3CVJIktDlvE4C5N-48" source="ilzCX3CVJIktDlvE4C5N-71" target="ilzCX3CVJIktDlvE4C5N-55" edge="1">
          <mxGeometry relative="1" as="geometry" />
        </mxCell>
        <mxCell id="ilzCX3CVJIktDlvE4C5N-79" style="edgeStyle=orthogonalEdgeStyle;rounded=0;orthogonalLoop=1;jettySize=auto;html=1;" parent="ilzCX3CVJIktDlvE4C5N-48" source="ilzCX3CVJIktDlvE4C5N-74" target="ilzCX3CVJIktDlvE4C5N-89" edge="1">
          <mxGeometry relative="1" as="geometry">
            <mxPoint x="735" y="350" as="targetPoint" />
            <Array as="points">
              <mxPoint x="735" y="523" />
            </Array>
          </mxGeometry>
        </mxCell>
        <mxCell id="ilzCX3CVJIktDlvE4C5N-82" value="Сервис распределения привычек" style="swimlane;horizontal=0;whiteSpace=wrap;html=1;" parent="ilzCX3CVJIktDlvE4C5N-48" vertex="1">
          <mxGeometry y="440" width="1460" height="200" as="geometry" />
        </mxCell>
        <mxCell id="ilzCX3CVJIktDlvE4C5N-89" value="Перераспределить привычки по расписанию и вернуть новое распределение&amp;nbsp;" style="points=[[0.25,0,0],[0.5,0,0],[0.75,0,0],[1,0.25,0],[1,0.5,0],[1,0.75,0],[0.75,1,0],[0.5,1,0],[0.25,1,0],[0,0.75,0],[0,0.5,0],[0,0.25,0]];shape=mxgraph.bpmn.task2;whiteSpace=wrap;rectStyle=rounded;size=10;html=1;container=1;expand=0;collapsible=0;taskMarker=abstract;" parent="ilzCX3CVJIktDlvE4C5N-82" vertex="1">
          <mxGeometry x="810" y="50" width="140" height="65" as="geometry" />
        </mxCell>
        <mxCell id="1AS3f-FlW91BigOhZWul-2" style="edgeStyle=orthogonalEdgeStyle;rounded=0;orthogonalLoop=1;jettySize=auto;html=1;" edge="1" parent="ilzCX3CVJIktDlvE4C5N-48" source="ilzCX3CVJIktDlvE4C5N-89" target="1AS3f-FlW91BigOhZWul-1">
          <mxGeometry relative="1" as="geometry" />
        </mxCell>
        <mxCell id="1AS3f-FlW91BigOhZWul-5" style="edgeStyle=orthogonalEdgeStyle;rounded=0;orthogonalLoop=1;jettySize=auto;html=1;" edge="1" parent="ilzCX3CVJIktDlvE4C5N-48" source="1AS3f-FlW91BigOhZWul-3" target="ilzCX3CVJIktDlvE4C5N-58">
          <mxGeometry relative="1" as="geometry">
            <Array as="points">
              <mxPoint x="1225" y="380" />
              <mxPoint x="1300" y="380" />
            </Array>
          </mxGeometry>
        </mxCell>
        <mxCell id="1AS3f-FlW91BigOhZWul-6" value="&lt;span style=&quot;font-size: 14px;&quot;&gt;Загрузка нового расписания&lt;/span&gt;" style="swimlane;whiteSpace=wrap;html=1;" vertex="1" parent="1">
          <mxGeometry y="450" width="1710" height="1040" as="geometry" />
        </mxCell>
        <mxCell id="1AS3f-FlW91BigOhZWul-19" value="Сервис обработки запросов" style="swimlane;horizontal=0;whiteSpace=wrap;html=1;" vertex="1" parent="1AS3f-FlW91BigOhZWul-6">
          <mxGeometry y="240" width="1710" height="200" as="geometry" />
        </mxCell>
        <mxCell id="1AS3f-FlW91BigOhZWul-20" value="Обработка запроса" style="points=[[0.25,0,0],[0.5,0,0],[0.75,0,0],[1,0.25,0],[1,0.5,0],[1,0.75,0],[0.75,1,0],[0.5,1,0],[0.25,1,0],[0,0.75,0],[0,0.5,0],[0,0.25,0]];shape=mxgraph.bpmn.task2;whiteSpace=wrap;rectStyle=rounded;size=10;html=1;container=1;expand=0;collapsible=0;taskMarker=abstract;" vertex="1" parent="1AS3f-FlW91BigOhZWul-19">
          <mxGeometry x="160" y="55" width="80" height="50" as="geometry" />
        </mxCell>
        <mxCell id="1AS3f-FlW91BigOhZWul-21" value="" style="points=[[0.25,0.25,0],[0.5,0,0],[0.75,0.25,0],[1,0.5,0],[0.75,0.75,0],[0.5,1,0],[0.25,0.75,0],[0,0.5,0]];shape=mxgraph.bpmn.gateway2;html=1;verticalLabelPosition=bottom;labelBackgroundColor=#ffffff;verticalAlign=top;align=center;perimeter=rhombusPerimeter;outlineConnect=0;outline=none;symbol=none;gwType=exclusive;" vertex="1" parent="1AS3f-FlW91BigOhZWul-19">
          <mxGeometry x="270" y="55" width="50" height="50" as="geometry" />
        </mxCell>
        <mxCell id="1AS3f-FlW91BigOhZWul-22" style="edgeStyle=orthogonalEdgeStyle;rounded=0;orthogonalLoop=1;jettySize=auto;html=1;entryX=0;entryY=0.5;entryDx=0;entryDy=0;entryPerimeter=0;" edge="1" parent="1AS3f-FlW91BigOhZWul-19" source="1AS3f-FlW91BigOhZWul-20" target="1AS3f-FlW91BigOhZWul-21">
          <mxGeometry relative="1" as="geometry" />
        </mxCell>
        <mxCell id="1AS3f-FlW91BigOhZWul-23" value="Удалось&amp;nbsp;&lt;div&gt;обработать?&lt;/div&gt;" style="text;html=1;align=center;verticalAlign=middle;resizable=0;points=[];autosize=1;strokeColor=none;fillColor=none;" vertex="1" parent="1AS3f-FlW91BigOhZWul-19">
          <mxGeometry x="220" y="100" width="90" height="40" as="geometry" />
        </mxCell>
        <mxCell id="1AS3f-FlW91BigOhZWul-24" value="Нет" style="text;html=1;align=center;verticalAlign=middle;resizable=0;points=[];autosize=1;strokeColor=none;fillColor=none;" vertex="1" parent="1AS3f-FlW91BigOhZWul-19">
          <mxGeometry x="250" y="25" width="40" height="30" as="geometry" />
        </mxCell>
        <mxCell id="1AS3f-FlW91BigOhZWul-27" value="Сервис хранения данных" style="swimlane;horizontal=0;whiteSpace=wrap;html=1;" vertex="1" parent="1AS3f-FlW91BigOhZWul-6">
          <mxGeometry y="840" width="1710" height="200" as="geometry" />
        </mxCell>
        <mxCell id="1AS3f-FlW91BigOhZWul-28" value="Поиск пользователя с указанным логином и паролем" style="points=[[0.25,0,0],[0.5,0,0],[0.75,0,0],[1,0.25,0],[1,0.5,0],[1,0.75,0],[0.75,1,0],[0.5,1,0],[0.25,1,0],[0,0.75,0],[0,0.5,0],[0,0.25,0]];shape=mxgraph.bpmn.task2;whiteSpace=wrap;rectStyle=rounded;size=10;html=1;container=1;expand=0;collapsible=0;taskMarker=abstract;" vertex="1" parent="1AS3f-FlW91BigOhZWul-27">
          <mxGeometry x="350" y="50" width="120" height="60" as="geometry" />
        </mxCell>
        <mxCell id="1AS3f-FlW91BigOhZWul-29" style="edgeStyle=orthogonalEdgeStyle;rounded=0;orthogonalLoop=1;jettySize=auto;html=1;exitX=1;exitY=0.5;exitDx=0;exitDy=0;exitPerimeter=0;" edge="1" parent="1AS3f-FlW91BigOhZWul-27" source="1AS3f-FlW91BigOhZWul-30" target="1AS3f-FlW91BigOhZWul-33">
          <mxGeometry relative="1" as="geometry" />
        </mxCell>
        <mxCell id="1AS3f-FlW91BigOhZWul-30" value="" style="points=[[0.25,0.25,0],[0.5,0,0],[0.75,0.25,0],[1,0.5,0],[0.75,0.75,0],[0.5,1,0],[0.25,0.75,0],[0,0.5,0]];shape=mxgraph.bpmn.gateway2;html=1;verticalLabelPosition=bottom;labelBackgroundColor=#ffffff;verticalAlign=top;align=center;perimeter=rhombusPerimeter;outlineConnect=0;outline=none;symbol=none;gwType=exclusive;" vertex="1" parent="1AS3f-FlW91BigOhZWul-27">
          <mxGeometry x="545" y="55" width="50" height="50" as="geometry" />
        </mxCell>
        <mxCell id="1AS3f-FlW91BigOhZWul-31" style="edgeStyle=orthogonalEdgeStyle;rounded=0;orthogonalLoop=1;jettySize=auto;html=1;entryX=0;entryY=0.5;entryDx=0;entryDy=0;entryPerimeter=0;" edge="1" parent="1AS3f-FlW91BigOhZWul-27" source="1AS3f-FlW91BigOhZWul-28" target="1AS3f-FlW91BigOhZWul-30">
          <mxGeometry relative="1" as="geometry" />
        </mxCell>
        <mxCell id="1AS3f-FlW91BigOhZWul-32" value="Нет" style="text;html=1;align=center;verticalAlign=middle;resizable=0;points=[];autosize=1;strokeColor=none;fillColor=none;" vertex="1" parent="1AS3f-FlW91BigOhZWul-27">
          <mxGeometry x="570" y="25" width="40" height="30" as="geometry" />
        </mxCell>
        <mxCell id="1AS3f-FlW91BigOhZWul-33" value="Получение привычек пользователя для нового распределения" style="points=[[0.25,0,0],[0.5,0,0],[0.75,0,0],[1,0.25,0],[1,0.5,0],[1,0.75,0],[0.75,1,0],[0.5,1,0],[0.25,1,0],[0,0.75,0],[0,0.5,0],[0,0.25,0]];shape=mxgraph.bpmn.task2;whiteSpace=wrap;rectStyle=rounded;size=10;html=1;container=1;expand=0;collapsible=0;taskMarker=abstract;" vertex="1" parent="1AS3f-FlW91BigOhZWul-27">
          <mxGeometry x="650" y="50" width="170" height="60" as="geometry" />
        </mxCell>
        <mxCell id="1AS3f-FlW91BigOhZWul-34" value="Пользователь&lt;div&gt;найден?&lt;/div&gt;" style="text;html=1;align=center;verticalAlign=middle;resizable=0;points=[];autosize=1;strokeColor=none;fillColor=none;" vertex="1" parent="1AS3f-FlW91BigOhZWul-27">
          <mxGeometry x="470" y="100" width="100" height="40" as="geometry" />
        </mxCell>
        <mxCell id="1AS3f-FlW91BigOhZWul-36" value="Обновить привычки для пользователя" style="points=[[0.25,0,0],[0.5,0,0],[0.75,0,0],[1,0.25,0],[1,0.5,0],[1,0.75,0],[0.75,1,0],[0.5,1,0],[0.25,1,0],[0,0.75,0],[0,0.5,0],[0,0.25,0]];shape=mxgraph.bpmn.task2;whiteSpace=wrap;rectStyle=rounded;size=10;html=1;container=1;expand=0;collapsible=0;taskMarker=abstract;" vertex="1" parent="1AS3f-FlW91BigOhZWul-27">
          <mxGeometry x="1240" y="50" width="170" height="60" as="geometry" />
        </mxCell>
        <mxCell id="1AS3f-FlW91BigOhZWul-38" style="edgeStyle=orthogonalEdgeStyle;rounded=0;orthogonalLoop=1;jettySize=auto;html=1;" edge="1" parent="1AS3f-FlW91BigOhZWul-6" source="1AS3f-FlW91BigOhZWul-21" target="1AS3f-FlW91BigOhZWul-28">
          <mxGeometry relative="1" as="geometry" />
        </mxCell>
        <mxCell id="1AS3f-FlW91BigOhZWul-41" value="Сервис распределения привычек" style="swimlane;horizontal=0;whiteSpace=wrap;html=1;" vertex="1" parent="1AS3f-FlW91BigOhZWul-6">
          <mxGeometry y="440" width="1710" height="200" as="geometry" />
        </mxCell>
        <mxCell id="1AS3f-FlW91BigOhZWul-42" value="Перераспределить привычки по расписанию и вернуть новое распределение&amp;nbsp;" style="points=[[0.25,0,0],[0.5,0,0],[0.75,0,0],[1,0.25,0],[1,0.5,0],[1,0.75,0],[0.75,1,0],[0.5,1,0],[0.25,1,0],[0,0.75,0],[0,0.5,0],[0,0.25,0]];shape=mxgraph.bpmn.task2;whiteSpace=wrap;rectStyle=rounded;size=10;html=1;container=1;expand=0;collapsible=0;taskMarker=abstract;" vertex="1" parent="1AS3f-FlW91BigOhZWul-41">
          <mxGeometry x="1090" y="50" width="140" height="65" as="geometry" />
        </mxCell>
        <mxCell id="1AS3f-FlW91BigOhZWul-45" value="Сервис парсинга файла расписания" style="swimlane;horizontal=0;whiteSpace=wrap;html=1;" vertex="1" parent="1AS3f-FlW91BigOhZWul-6">
          <mxGeometry y="640" width="1710" height="200" as="geometry" />
        </mxCell>
        <mxCell id="1AS3f-FlW91BigOhZWul-52" style="edgeStyle=orthogonalEdgeStyle;rounded=0;orthogonalLoop=1;jettySize=auto;html=1;" edge="1" parent="1AS3f-FlW91BigOhZWul-45" source="1AS3f-FlW91BigOhZWul-47" target="1AS3f-FlW91BigOhZWul-50">
          <mxGeometry relative="1" as="geometry" />
        </mxCell>
        <mxCell id="1AS3f-FlW91BigOhZWul-47" value="Получение событий из файла расписания" style="points=[[0.25,0,0],[0.5,0,0],[0.75,0,0],[1,0.25,0],[1,0.5,0],[1,0.75,0],[0.75,1,0],[0.5,1,0],[0.25,1,0],[0,0.75,0],[0,0.5,0],[0,0.25,0]];shape=mxgraph.bpmn.task2;whiteSpace=wrap;rectStyle=rounded;size=10;html=1;container=1;expand=0;collapsible=0;taskMarker=abstract;" vertex="1" parent="1AS3f-FlW91BigOhZWul-45">
          <mxGeometry x="760" y="70" width="170" height="60" as="geometry" />
        </mxCell>
        <mxCell id="1AS3f-FlW91BigOhZWul-50" value="" style="points=[[0.25,0.25,0],[0.5,0,0],[0.75,0.25,0],[1,0.5,0],[0.75,0.75,0],[0.5,1,0],[0.25,0.75,0],[0,0.5,0]];shape=mxgraph.bpmn.gateway2;html=1;verticalLabelPosition=bottom;labelBackgroundColor=#ffffff;verticalAlign=top;align=center;perimeter=rhombusPerimeter;outlineConnect=0;outline=none;symbol=none;gwType=exclusive;" vertex="1" parent="1AS3f-FlW91BigOhZWul-45">
          <mxGeometry x="975" y="75" width="50" height="50" as="geometry" />
        </mxCell>
        <mxCell id="1AS3f-FlW91BigOhZWul-58" value="Возникли&lt;div&gt;ошибки?&lt;/div&gt;" style="text;html=1;align=center;verticalAlign=middle;resizable=0;points=[];autosize=1;strokeColor=none;fillColor=none;" vertex="1" parent="1AS3f-FlW91BigOhZWul-45">
          <mxGeometry x="920" y="110" width="80" height="40" as="geometry" />
        </mxCell>
        <mxCell id="1AS3f-FlW91BigOhZWul-48" style="edgeStyle=orthogonalEdgeStyle;rounded=0;orthogonalLoop=1;jettySize=auto;html=1;" edge="1" parent="1AS3f-FlW91BigOhZWul-6" source="1AS3f-FlW91BigOhZWul-33" target="1AS3f-FlW91BigOhZWul-47">
          <mxGeometry relative="1" as="geometry">
            <Array as="points">
              <mxPoint x="735" y="740" />
            </Array>
          </mxGeometry>
        </mxCell>
        <mxCell id="1AS3f-FlW91BigOhZWul-60" style="edgeStyle=orthogonalEdgeStyle;rounded=0;orthogonalLoop=1;jettySize=auto;html=1;exitX=1;exitY=0.5;exitDx=0;exitDy=0;exitPerimeter=0;" edge="1" parent="1AS3f-FlW91BigOhZWul-6" source="1AS3f-FlW91BigOhZWul-50" target="1AS3f-FlW91BigOhZWul-42">
          <mxGeometry relative="1" as="geometry">
            <Array as="points">
              <mxPoint x="1060" y="740" />
              <mxPoint x="1060" y="523" />
            </Array>
          </mxGeometry>
        </mxCell>
        <mxCell id="1AS3f-FlW91BigOhZWul-61" style="edgeStyle=orthogonalEdgeStyle;rounded=0;orthogonalLoop=1;jettySize=auto;html=1;" edge="1" parent="1AS3f-FlW91BigOhZWul-6" source="1AS3f-FlW91BigOhZWul-42" target="1AS3f-FlW91BigOhZWul-36">
          <mxGeometry relative="1" as="geometry" />
        </mxCell>
        <mxCell id="1AS3f-FlW91BigOhZWul-7" value="Сервис получения запросов" style="swimlane;horizontal=0;whiteSpace=wrap;html=1;startSize=23;" vertex="1" parent="1AS3f-FlW91BigOhZWul-6">
          <mxGeometry y="30" width="1710" height="210" as="geometry" />
        </mxCell>
        <mxCell id="1AS3f-FlW91BigOhZWul-8" value="" style="points=[[0.145,0.145,0],[0.5,0,0],[0.855,0.145,0],[1,0.5,0],[0.855,0.855,0],[0.5,1,0],[0.145,0.855,0],[0,0.5,0]];shape=mxgraph.bpmn.event;html=1;verticalLabelPosition=bottom;labelBackgroundColor=#ffffff;verticalAlign=top;align=center;perimeter=ellipsePerimeter;outlineConnect=0;aspect=fixed;outline=standard;symbol=message;" vertex="1" parent="1AS3f-FlW91BigOhZWul-7">
          <mxGeometry x="75" y="80" width="45" height="45" as="geometry" />
        </mxCell>
        <mxCell id="1AS3f-FlW91BigOhZWul-9" value="Запрос на загрузку&lt;div&gt;расписания из файла&lt;/div&gt;" style="text;html=1;align=center;verticalAlign=middle;resizable=0;points=[];autosize=1;strokeColor=none;fillColor=none;" vertex="1" parent="1AS3f-FlW91BigOhZWul-7">
          <mxGeometry x="30" y="45" width="140" height="40" as="geometry" />
        </mxCell>
        <mxCell id="1AS3f-FlW91BigOhZWul-10" value="Информирование&lt;br&gt;пользователя&lt;br&gt;об ошибке в запросе" style="points=[[0.25,0,0],[0.5,0,0],[0.75,0,0],[1,0.25,0],[1,0.5,0],[1,0.75,0],[0.75,1,0],[0.5,1,0],[0.25,1,0],[0,0.75,0],[0,0.5,0],[0,0.25,0]];shape=mxgraph.bpmn.task2;whiteSpace=wrap;rectStyle=rounded;size=10;html=1;container=1;expand=0;collapsible=0;taskMarker=abstract;" vertex="1" parent="1AS3f-FlW91BigOhZWul-7">
          <mxGeometry x="310" y="10" width="120" height="50" as="geometry" />
        </mxCell>
        <mxCell id="1AS3f-FlW91BigOhZWul-11" value="" style="points=[[0.145,0.145,0],[0.5,0,0],[0.855,0.145,0],[1,0.5,0],[0.855,0.855,0],[0.5,1,0],[0.145,0.855,0],[0,0.5,0]];shape=mxgraph.bpmn.event;html=1;verticalLabelPosition=bottom;labelBackgroundColor=#ffffff;verticalAlign=top;align=center;perimeter=ellipsePerimeter;outlineConnect=0;aspect=fixed;outline=end;symbol=error;" vertex="1" parent="1AS3f-FlW91BigOhZWul-7">
          <mxGeometry x="460" y="15" width="40" height="40" as="geometry" />
        </mxCell>
        <mxCell id="1AS3f-FlW91BigOhZWul-12" style="edgeStyle=orthogonalEdgeStyle;rounded=0;orthogonalLoop=1;jettySize=auto;html=1;entryX=0;entryY=0.5;entryDx=0;entryDy=0;entryPerimeter=0;" edge="1" parent="1AS3f-FlW91BigOhZWul-7" source="1AS3f-FlW91BigOhZWul-10" target="1AS3f-FlW91BigOhZWul-11">
          <mxGeometry relative="1" as="geometry" />
        </mxCell>
        <mxCell id="1AS3f-FlW91BigOhZWul-13" value="Информирование&lt;br&gt;пользователя&lt;br&gt;об ошибке авторизации" style="points=[[0.25,0,0],[0.5,0,0],[0.75,0,0],[1,0.25,0],[1,0.5,0],[1,0.75,0],[0.75,1,0],[0.5,1,0],[0.25,1,0],[0,0.75,0],[0,0.5,0],[0,0.25,0]];shape=mxgraph.bpmn.task2;whiteSpace=wrap;rectStyle=rounded;size=10;html=1;container=1;expand=0;collapsible=0;taskMarker=abstract;" vertex="1" parent="1AS3f-FlW91BigOhZWul-7">
          <mxGeometry x="560" y="10" width="140" height="50" as="geometry" />
        </mxCell>
        <mxCell id="1AS3f-FlW91BigOhZWul-14" value="" style="points=[[0.145,0.145,0],[0.5,0,0],[0.855,0.145,0],[1,0.5,0],[0.855,0.855,0],[0.5,1,0],[0.145,0.855,0],[0,0.5,0]];shape=mxgraph.bpmn.event;html=1;verticalLabelPosition=bottom;labelBackgroundColor=#ffffff;verticalAlign=top;align=center;perimeter=ellipsePerimeter;outlineConnect=0;aspect=fixed;outline=end;symbol=error;" vertex="1" parent="1AS3f-FlW91BigOhZWul-7">
          <mxGeometry x="730" y="15" width="40" height="40" as="geometry" />
        </mxCell>
        <mxCell id="1AS3f-FlW91BigOhZWul-15" style="edgeStyle=orthogonalEdgeStyle;rounded=0;orthogonalLoop=1;jettySize=auto;html=1;entryX=0;entryY=0.5;entryDx=0;entryDy=0;entryPerimeter=0;" edge="1" parent="1AS3f-FlW91BigOhZWul-7" source="1AS3f-FlW91BigOhZWul-13" target="1AS3f-FlW91BigOhZWul-14">
          <mxGeometry relative="1" as="geometry" />
        </mxCell>
        <mxCell id="1AS3f-FlW91BigOhZWul-54" value="Информирование пользователя об ошибке в файле" style="points=[[0.25,0,0],[0.5,0,0],[0.75,0,0],[1,0.25,0],[1,0.5,0],[1,0.75,0],[0.75,1,0],[0.5,1,0],[0.25,1,0],[0,0.75,0],[0,0.5,0],[0,0.25,0]];shape=mxgraph.bpmn.task2;whiteSpace=wrap;rectStyle=rounded;size=10;html=1;container=1;expand=0;collapsible=0;taskMarker=abstract;" vertex="1" parent="1AS3f-FlW91BigOhZWul-7">
          <mxGeometry x="930" y="10" width="140" height="50" as="geometry" />
        </mxCell>
        <mxCell id="1AS3f-FlW91BigOhZWul-55" value="" style="points=[[0.145,0.145,0],[0.5,0,0],[0.855,0.145,0],[1,0.5,0],[0.855,0.855,0],[0.5,1,0],[0.145,0.855,0],[0,0.5,0]];shape=mxgraph.bpmn.event;html=1;verticalLabelPosition=bottom;labelBackgroundColor=#ffffff;verticalAlign=top;align=center;perimeter=ellipsePerimeter;outlineConnect=0;aspect=fixed;outline=end;symbol=error;" vertex="1" parent="1AS3f-FlW91BigOhZWul-7">
          <mxGeometry x="1100" y="15" width="40" height="40" as="geometry" />
        </mxCell>
        <mxCell id="1AS3f-FlW91BigOhZWul-56" style="edgeStyle=orthogonalEdgeStyle;rounded=0;orthogonalLoop=1;jettySize=auto;html=1;entryX=0;entryY=0.5;entryDx=0;entryDy=0;entryPerimeter=0;" edge="1" parent="1AS3f-FlW91BigOhZWul-7" source="1AS3f-FlW91BigOhZWul-54" target="1AS3f-FlW91BigOhZWul-55">
          <mxGeometry relative="1" as="geometry" />
        </mxCell>
        <mxCell id="1AS3f-FlW91BigOhZWul-16" value="Формирование ответа" style="points=[[0.25,0,0],[0.5,0,0],[0.75,0,0],[1,0.25,0],[1,0.5,0],[1,0.75,0],[0.75,1,0],[0.5,1,0],[0.25,1,0],[0,0.75,0],[0,0.5,0],[0,0.25,0]];shape=mxgraph.bpmn.task2;whiteSpace=wrap;rectStyle=rounded;size=10;html=1;container=1;expand=0;collapsible=0;taskMarker=abstract;" vertex="1" parent="1AS3f-FlW91BigOhZWul-7">
          <mxGeometry x="1470" y="77.5" width="120" height="50" as="geometry" />
        </mxCell>
        <mxCell id="1AS3f-FlW91BigOhZWul-17" style="edgeStyle=orthogonalEdgeStyle;rounded=0;orthogonalLoop=1;jettySize=auto;html=1;" edge="1" parent="1AS3f-FlW91BigOhZWul-7" source="1AS3f-FlW91BigOhZWul-16" target="1AS3f-FlW91BigOhZWul-18">
          <mxGeometry relative="1" as="geometry">
            <mxPoint x="1620" y="102.5" as="targetPoint" />
          </mxGeometry>
        </mxCell>
        <mxCell id="1AS3f-FlW91BigOhZWul-18" value="" style="points=[[0.145,0.145,0],[0.5,0,0],[0.855,0.145,0],[1,0.5,0],[0.855,0.855,0],[0.5,1,0],[0.145,0.855,0],[0,0.5,0]];shape=mxgraph.bpmn.event;html=1;verticalLabelPosition=bottom;labelBackgroundColor=#ffffff;verticalAlign=top;align=center;perimeter=ellipsePerimeter;outlineConnect=0;aspect=fixed;outline=end;symbol=message;" vertex="1" parent="1AS3f-FlW91BigOhZWul-7">
          <mxGeometry x="1630" y="77.5" width="50" height="50" as="geometry" />
        </mxCell>
        <mxCell id="1AS3f-FlW91BigOhZWul-37" value="Получение всей информации о пользователе - расписание, привычки, настройки и тд" style="points=[[0.25,0,0],[0.5,0,0],[0.75,0,0],[1,0.25,0],[1,0.5,0],[1,0.75,0],[0.75,1,0],[0.5,1,0],[0.25,1,0],[0,0.75,0],[0,0.5,0],[0,0.25,0]];shape=mxgraph.bpmn.task2;whiteSpace=wrap;rectStyle=rounded;size=10;html=1;container=1;expand=0;collapsible=0;taskMarker=abstract;" vertex="1" parent="1AS3f-FlW91BigOhZWul-7">
          <mxGeometry x="1470" y="860" width="170" height="60" as="geometry" />
        </mxCell>
        <mxCell id="1AS3f-FlW91BigOhZWul-44" style="edgeStyle=orthogonalEdgeStyle;rounded=0;orthogonalLoop=1;jettySize=auto;html=1;" edge="1" parent="1AS3f-FlW91BigOhZWul-7" source="1AS3f-FlW91BigOhZWul-37" target="1AS3f-FlW91BigOhZWul-16">
          <mxGeometry relative="1" as="geometry">
            <Array as="points">
              <mxPoint x="1555" y="490" />
              <mxPoint x="1530" y="490" />
            </Array>
          </mxGeometry>
        </mxCell>
        <mxCell id="1AS3f-FlW91BigOhZWul-25" style="edgeStyle=orthogonalEdgeStyle;rounded=0;orthogonalLoop=1;jettySize=auto;html=1;entryX=0;entryY=0.5;entryDx=0;entryDy=0;entryPerimeter=0;" edge="1" parent="1AS3f-FlW91BigOhZWul-6" source="1AS3f-FlW91BigOhZWul-8" target="1AS3f-FlW91BigOhZWul-20">
          <mxGeometry relative="1" as="geometry" />
        </mxCell>
        <mxCell id="1AS3f-FlW91BigOhZWul-26" style="edgeStyle=orthogonalEdgeStyle;rounded=0;orthogonalLoop=1;jettySize=auto;html=1;" edge="1" parent="1AS3f-FlW91BigOhZWul-6" source="1AS3f-FlW91BigOhZWul-21" target="1AS3f-FlW91BigOhZWul-10">
          <mxGeometry relative="1" as="geometry">
            <Array as="points">
              <mxPoint x="295" y="65" />
            </Array>
          </mxGeometry>
        </mxCell>
        <mxCell id="1AS3f-FlW91BigOhZWul-39" style="edgeStyle=orthogonalEdgeStyle;rounded=0;orthogonalLoop=1;jettySize=auto;html=1;" edge="1" parent="1AS3f-FlW91BigOhZWul-6" source="1AS3f-FlW91BigOhZWul-30" target="1AS3f-FlW91BigOhZWul-13">
          <mxGeometry relative="1" as="geometry" />
        </mxCell>
        <mxCell id="1AS3f-FlW91BigOhZWul-57" style="edgeStyle=orthogonalEdgeStyle;rounded=0;orthogonalLoop=1;jettySize=auto;html=1;" edge="1" parent="1AS3f-FlW91BigOhZWul-6" source="1AS3f-FlW91BigOhZWul-50" target="1AS3f-FlW91BigOhZWul-54">
          <mxGeometry relative="1" as="geometry" />
        </mxCell>
        <mxCell id="1AS3f-FlW91BigOhZWul-35" style="edgeStyle=orthogonalEdgeStyle;rounded=0;orthogonalLoop=1;jettySize=auto;html=1;" edge="1" parent="1AS3f-FlW91BigOhZWul-6" source="1AS3f-FlW91BigOhZWul-36" target="1AS3f-FlW91BigOhZWul-37">
          <mxGeometry relative="1" as="geometry" />
        </mxCell>
      </root>
    </mxGraphModel>
  </diagram>
</mxfile>
